%
T1C.018F095S3
X173Y1955
X17425Y19825
X1745Y1965
X1755Y19675
X176Y198
X176Y2005
X1745Y20325
T2C.035F197S55
X170807Y19397
X173941Y192
X1755Y192
X177059Y192
X178441Y192
X18Y192
X181559Y192
X170807Y19597
X170807Y19497
X170807Y19697
X170784Y201147
X170784Y200147
X170784Y199147
X17613Y202929
X17713Y202929
X17813Y202929
X17913Y202929
X18013Y202929
X18113Y202929
T3C.037F197S55
X173353Y194901
X1765Y1945
X182617Y201183
X173991Y202943
T4C.14F035S9
X1715Y1915
X184Y1915
X184Y2035
X1715Y2035
M30
