*
*
G04 PADS 9.3 Build Number: 433611 generated Gerber (RS-274-X) file*
G04 PC Version=2.1*
*
%IN "wobblehead_blz_pour.pcb"*%
*
%MOIN*%
*
%FSLAX35Y35*%
*
*
*
*
G04 PC Standard Apertures*
*
*
G04 Thermal Relief Aperture macro.*
%AMTER*
1,1,$1,0,0*
1,0,$1-$2,0,0*
21,0,$3,$4,0,0,45*
21,0,$3,$4,0,0,135*
%
*
*
G04 Annular Aperture macro.*
%AMANN*
1,1,$1,0,0*
1,0,$2,0,0*
%
*
*
G04 Odd Aperture macro.*
%AMODD*
1,1,$1,0,0*
1,0,$1-0.005,0,0*
%
*
*
G04 PC Custom Aperture Macros*
*
*
*
*
*
*
G04 PC Aperture Table*
*
%ADD010C,0.001*%
%ADD011C,0.01*%
%ADD083C,0.07*%
%ADD085R,0.0789X0.0789*%
%ADD086C,0.0789*%
%ADD092R,0.07X0.07*%
%ADD093C,0.19*%
*
*
*
*
G04 PC Circuitry*
G04 Layer Name wobblehead_blz_pour.pcb - circuitry*
%LPD*%
*
*
G04 PC Custom Flashes*
G04 Layer Name wobblehead_blz_pour.pcb - flashes*
%LPD*%
*
*
G04 PC Circuitry*
G04 Layer Name wobblehead_blz_pour.pcb - circuitry*
%LPD*%
*
G54D10*
G54D11*
G01X1963426Y1667062D02*
X1964335Y1662687D01*
X1965244Y1667062D02*
X1964335Y1662687D01*
X1965244Y1667062D02*
X1966153Y1662687D01*
X1967062Y1667062D02*
X1966153Y1662687D01*
X1970244Y1667062D02*
X1969790Y1666750D01*
X1969335Y1666125*
X1969108Y1665187*
Y1664562*
X1969335Y1663625*
X1969790Y1663000*
X1970244Y1662687*
X1970926*
X1971381Y1663000*
X1971835Y1663625*
X1972062Y1664562*
Y1665187*
X1971835Y1666125*
X1971381Y1666750*
X1970926Y1667062*
X1970244*
X1974108Y1669250D02*
Y1662687D01*
Y1666125D02*
X1974562Y1666750D01*
X1975017Y1667062*
X1975699*
X1976153Y1666750*
X1976608Y1666125*
X1976835Y1665187*
Y1664562*
X1976608Y1663625*
X1976153Y1663000*
X1975699Y1662687*
X1975017*
X1974562Y1663000*
X1974108Y1663625*
X1978881Y1669250D02*
Y1662687D01*
Y1666125D02*
X1979335Y1666750D01*
X1979790Y1667062*
X1980472*
X1980926Y1666750*
X1981381Y1666125*
X1981608Y1665187*
Y1664562*
X1981381Y1663625*
X1980926Y1663000*
X1980472Y1662687*
X1979790*
X1979335Y1663000*
X1978881Y1663625*
X1983653Y1669250D02*
Y1662687D01*
X1985699Y1665187D02*
X1988426D01*
Y1665812*
X1988199Y1666437*
X1987972Y1666750*
X1987517Y1667062*
X1986835*
X1986381Y1666750*
X1985926Y1666125*
X1985699Y1665187*
Y1664562*
X1985926Y1663625*
X1986381Y1663000*
X1986835Y1662687*
X1987517*
X1987972Y1663000*
X1988426Y1663625*
X1990472Y1669250D02*
Y1662687D01*
Y1665812D02*
X1991153Y1666750D01*
X1991608Y1667062*
X1992290*
X1992744Y1666750*
X1992972Y1665812*
Y1662687*
X1995017Y1665187D02*
X1997744D01*
Y1665812*
X1997517Y1666437*
X1997290Y1666750*
X1996835Y1667062*
X1996153*
X1995699Y1666750*
X1995244Y1666125*
X1995017Y1665187*
Y1664562*
X1995244Y1663625*
X1995699Y1663000*
X1996153Y1662687*
X1996835*
X1997290Y1663000*
X1997744Y1663625*
X2002517Y1667062D02*
Y1662687D01*
Y1666125D02*
X2002062Y1666750D01*
X2001608Y1667062*
X2000926*
X2000472Y1666750*
X2000017Y1666125*
X1999790Y1665187*
Y1664562*
X2000017Y1663625*
X2000472Y1663000*
X2000926Y1662687*
X2001608*
X2002062Y1663000*
X2002517Y1663625*
X2007290Y1669250D02*
Y1662687D01*
Y1666125D02*
X2006835Y1666750D01*
X2006381Y1667062*
X2005699*
X2005244Y1666750*
X2004790Y1666125*
X2004562Y1665187*
Y1664562*
X2004790Y1663625*
X2005244Y1663000*
X2005699Y1662687*
X2006381*
X2006835Y1663000*
X2007290Y1663625*
X2009335Y1669250D02*
Y1662687D01*
X2011608Y1667062D02*
X2009335Y1663937D01*
X2010244Y1665187D02*
X2011835Y1662687D01*
X2013881Y1669250D02*
X2014108Y1668937D01*
X2014335Y1669250*
X2014108Y1669562*
X2013881Y1669250*
X2014108Y1667062D02*
Y1662687D01*
X2017062Y1669250D02*
Y1663937D01*
X2017290Y1663000*
X2017744Y1662687*
X2018199*
X2016381Y1667062D02*
X2017972D01*
X2020472Y1663312D02*
X2020244Y1663000D01*
X2020472Y1662687*
X2020699Y1663000*
X2020472Y1663312*
X2025472Y1666125D02*
X2025017Y1666750D01*
X2024562Y1667062*
X2023881*
X2023426Y1666750*
X2022972Y1666125*
X2022744Y1665187*
Y1664562*
X2022972Y1663625*
X2023426Y1663000*
X2023881Y1662687*
X2024562*
X2025017Y1663000*
X2025472Y1663625*
X2028653Y1667062D02*
X2028199Y1666750D01*
X2027744Y1666125*
X2027517Y1665187*
Y1664562*
X2027744Y1663625*
X2028199Y1663000*
X2028653Y1662687*
X2029335*
X2029790Y1663000*
X2030244Y1663625*
X2030472Y1664562*
Y1665187*
X2030244Y1666125*
X2029790Y1666750*
X2029335Y1667062*
X2028653*
X2032517D02*
Y1662687D01*
Y1665812D02*
X2033199Y1666750D01*
X2033653Y1667062*
X2034335*
X2034790Y1666750*
X2035017Y1665812*
Y1662687*
Y1665812D02*
X2035699Y1666750D01*
X2036153Y1667062*
X2036835*
X2037290Y1666750*
X2037517Y1665812*
Y1662687*
G54D83*
X1988079Y1566313D03*
X2049246Y1633139D03*
X1956607Y1570327D03*
X1962992Y1650738D03*
X1930921Y1622784D03*
Y1612784D03*
X1931150Y1561013D03*
X1994379Y1650603D03*
X2004379D03*
X2014379D03*
X2024379D03*
X2034379D03*
X1931150Y1581013D03*
G54D85*
X1962488Y1541313D03*
X2007488D03*
G54D86*
X1978079D03*
X1993669D03*
X2023079D03*
X2038669D03*
G54D92*
X1930921Y1632784D03*
X1931150Y1571013D03*
X1984379Y1650603D03*
X1931150Y1591013D03*
G54D93*
X1938079Y1656313D03*
Y1536313D03*
X2063079Y1656313D03*
Y1536313D03*
X0Y0D02*
M02*
